<svg xmlns="http://www.w3.org/2000/svg" version="1.1" xmlns:xlink="http://www.w3.org/1999/xlink" xmlns:svgjs="http://svgjs.dev/svgjs" width="1500" height="1500" viewBox="0 0 1500 1500"><rect width="1500" height="1500" fill="#ffffff"></rect><g transform="matrix(0.6666666666666666,0,0,0.6666666666666666,249.39393939393938,622.0766222586745)"><svg viewBox="0 0 396 101" data-background-color="#ffffff" preserveAspectRatio="xMidYMid meet" height="382" width="1500" xmlns="http://www.w3.org/2000/svg" xmlns:xlink="http://www.w3.org/1999/xlink"><g id="tight-bounds" transform="matrix(1,0,0,1,0.2400000000000091,0.234009758667014)"><svg viewBox="0 0 395.52 100.53156589271542" height="100.53156589271542" width="395.52"><g><svg viewBox="0 0 395.52 100.53156589271542" height="100.53156589271542" width="395.52"><g><svg viewBox="0 0 395.52 100.53156589271542" height="100.53156589271542" width="395.52"><g id="textblocktransform"><svg viewBox="0 0 395.52 100.53156589271542" height="100.53156589271542" width="395.52" id="textblock"><g><svg viewBox="0 0 395.52 37.12183285602707" height="37.12183285602707" width="395.52"><g transform="matrix(1,0,0,1,0,0)"><svg width="395.52" viewBox="0.45 -35.5 384.06 36.05" height="37.12183285602707" data-palette-color="#35185a"><path d="M0.45-4.5L0.45-4.5Q0.45-5.95 1.3-7.88 2.15-9.8 3.15-10.5L3.15-10.5Q5.05-9.1 7-9.1L7-9.1 8.55-9.35Q11.25-10.15 11.35-13.65L11.35-13.65 11.35-26.4 7.35-26.4Q6.5-26.4 6.15-28.55L6.15-28.55Q6-29.6 6-30.7 6-31.8 6.15-32.85L6.15-32.85Q6.5-35 7.35-35L7.35-35 19.25-35Q20.25-35 20.75-34.43 21.25-33.85 21.25-33.05L21.25-33.05 21.25-9.45Q21.25-4.55 17.98-2 14.7 0.55 10.13 0.55 5.55 0.55 3-0.8 0.45-2.15 0.45-4.5ZM25.1-9.95L25.1-24.7Q25.1-25.25 29.4-25.25 33.7-25.25 33.7-24.7L33.7-24.7 33.7-10.1Q33.7-7.6 35.3-7.6L35.3-7.6Q36.5-7.6 38-8.65L38-8.65 38-24.7Q38-25.2 42.25-25.2 46.5-25.2 46.5-24.7L46.5-24.7 46.5-8.3 47.8-8.3Q49.5-8.3 49.5-5.05L49.5-5.05Q49.5-3.4 48.8-1.7L48.8-1.7Q47.8 0.5 46.1 0.5L46.1 0.5Q42.75 0.5 41.15-2.25L41.15-2.25 41.1-2.2Q38.05 0.5 34.55 0.5L34.55 0.5Q29.7 0.5 27.4-1.93 25.1-4.35 25.1-9.95L25.1-9.95ZM53.59-9L53.59-9Q57.65-6.55 60-6.55L60-6.55Q61.5-6.55 61.5-7.6L61.5-7.6Q61.5-8.35 58.9-9.55L58.9-9.55Q52.65-12.1 52.65-17.9L52.65-17.9Q52.65-21.6 55.34-23.55 58.05-25.5 61.82-25.5 65.59-25.5 68.22-24.7 70.84-23.9 70.84-22.6L70.84-22.6Q70.84-21.5 69.77-19.7 68.7-17.9 68.3-17.75L68.3-17.75Q66.15-18.95 63.65-18.95L63.65-18.95Q62.3-18.95 62.3-18L62.3-18Q62.3-17.4 62.82-16.98 63.34-16.55 64.75-15.93 66.15-15.3 67.07-14.8 68-14.3 69.15-13.4L69.15-13.4Q71.55-11.5 71.55-8.45L71.55-8.45Q71.55-4.45 68.9-1.98 66.25 0.5 60.9 0.5L60.9 0.5Q57.34 0.5 54.45-0.7 51.55-1.9 51.55-4L51.55-4Q51.55-5.4 52.22-6.95 52.9-8.5 53.59-9ZM86.54-18L86.54-0.3Q86.54 0.3 82.34 0.3L82.34 0.3Q77.34 0.1 77.34-0.35L77.34-0.35 77.34-18.05 74.79-18.05Q73.79-18.05 73.79-21.5L73.79-21.5Q73.79-22.4 73.97-23.7 74.14-25 74.69-25L74.69-25 77.34-25 77.34-29.4Q77.34-30.4 81.57-30.4 85.79-30.4 85.79-29.6L85.79-29.6 85.79-26.4 85.84-25 90.09-25Q90.94-25 90.94-21.5 90.94-18 90.09-18L90.09-18 86.54-18ZM102.59-24.85L102.59-0.3Q102.59 0.1 98.02 0.1 93.44 0.1 93.44-0.25L93.44-0.25 93.44-24.8Q93.44-25.15 98.02-25.15 102.59-25.15 102.59-24.85L102.59-24.85ZM102.59-35.15L102.59-27.8Q102.59-27.45 98.02-27.45 93.44-27.45 93.44-27.75L93.44-27.75 93.44-34.95Q93.44-35.45 98.02-35.45 102.59-35.45 102.59-35.15L102.59-35.15ZM115.29-12.4L115.29-12.4Q115.29-7.5 118.99-7.5L118.99-7.5Q121.39-7.5 122.99-8.45L122.99-8.45Q123.74-8.45 124.21-5.88 124.69-3.3 124.69-2.38 124.69-1.45 124.44-1.15L124.44-1.15Q121.79 0.5 117.19 0.5 112.59 0.5 109.36-2.93 106.14-6.35 106.14-12.28 106.14-18.2 109.31-21.85 112.49-25.5 117.76-25.5 123.04-25.5 125.09-22.95L125.09-22.95Q125.54-22.4 125.54-21.33 125.54-20.25 125.14-18.7L125.14-18.7Q124.24-15.5 122.79-15L122.79-15Q122.59-14.95 122.21-14.95 121.84-14.95 121.29-15.55L121.29-15.55Q119.34-17.5 118.16-17.5 116.99-17.5 116.14-16.3 115.29-15.1 115.29-12.4ZM147.19-1.35L147.19-1.35Q144.04 0.5 139.09 0.5 134.14 0.5 130.74-2.88 127.34-6.25 127.34-12.23 127.34-18.2 130.61-21.85 133.89-25.5 138.89-25.5 143.89-25.5 146.61-22.95 149.34-20.4 149.34-16.75L149.34-16.75Q149.34-8.65 140.04-8.65L140.04-8.65 136.59-8.65Q136.59-7.15 137.41-6.58 138.24-6 139.84-6L139.84-6Q143.34-6 146.49-7.6L146.49-7.6Q146.54-7.65 146.94-6.9L146.94-6.9Q148.14-4.75 148.14-3.28 148.14-1.8 147.19-1.35ZM140.94-15.8L140.94-15.8Q140.94-17.9 138.89-17.9L138.89-17.9Q137.94-17.9 137.26-17.32 136.59-16.75 136.59-15.65L136.59-15.65 136.59-14.1 139.29-14.1Q140.94-14.1 140.94-15.8ZM177.18-24.45L177.18-24.45 177.23-24.95Q177.23-26.2 176.41-26.95 175.58-27.7 174.38-27.7 173.18-27.7 172.38-26.9 171.58-26.1 171.58-24.7L171.58-24.7Q171.58-20.9 176.93-20.9L176.93-20.9Q178.13-20.9 179.63-21.1L179.63-21.1Q189.48-22.35 189.58-22.35L189.58-22.35Q190.98-22.35 190.98-19.5L190.98-19.5Q190.98-17.2 190.03-14.95L190.03-14.95 184.93-14.35Q186.23-11.2 186.23-8.65L186.23-8.65Q186.23-4.7 183.21-2.1 180.18 0.5 174.41 0.5 168.63 0.5 165.28-2.33 161.93-5.15 161.93-9.58 161.93-14 166.18-17.15L166.18-17.15Q163.03-20.65 163.03-25.25 163.03-29.85 166.23-32.68 169.43-35.5 174.53-35.5 179.63-35.5 182.61-33 185.58-30.5 185.58-26.25L185.58-26.25Q185.58-25.4 183.96-24.6 182.33-23.8 180.08-23.8 177.83-23.8 177.18-24.45ZM171.68-14.25L171.68-14.25Q171.13-12.8 171.13-11.68 171.13-10.55 171.48-9.7L171.48-9.7Q172.28-7.75 174.68-7.75L174.68-7.75Q176.38-7.75 177.16-8.97 177.93-10.2 177.93-12.05L177.93-12.05Q177.93-12.9 177.88-13.33 177.83-13.75 177.83-13.85L177.83-13.85Q176.13-13.55 174.48-13.55 172.83-13.55 171.68-14.25ZM206.03-35L223.68-35Q224.53-35 224.53-30.58 224.53-26.15 223.68-26.15L223.68-26.15 214.53-26.15 214.53-20.45 220.63-20.45Q221.48-20.45 221.48-16.57 221.48-12.7 220.68-12.7L220.68-12.7 214.53-12.7 214.53-0.65Q214.53 0.05 212.65 0.28 210.78 0.5 209.53 0.5L209.53 0.5 207.18 0.4Q204.73 0.1 204.73-0.6L204.73-0.6 204.73-33.7Q204.73-34.5 205.05-34.75 205.38-35 206.03-35L206.03-35ZM238.02-14L238.02-0.05Q238.02 0.3 233.47 0.3L233.47 0.3Q228.92 0.2 228.92-0.1L228.92-0.1 228.92-16.7 227.57-16.7Q226.77-16.7 226.3-17.68 225.82-18.65 225.82-20.1L225.82-20.1Q225.82-25.5 229.02-25.5L229.02-25.5Q231.27-25.5 232.77-24.13 234.27-22.75 234.27-21L234.27-21Q235.32-23.05 237.1-24.28 238.87-25.5 240.72-25.5L240.72-25.5Q243.62-25.5 244.22-24L244.22-24Q244.37-23.6 244.37-22.83 244.37-22.05 243.9-20.05 243.42-18.05 242.92-17.15 242.42-16.25 242.32-16.25 242.22-16.25 241.4-16.63 240.57-17 239.92-17L239.92-17Q238.02-17 238.02-14L238.02-14ZM265.77-1.35L265.77-1.35Q262.62 0.5 257.67 0.5 252.72 0.5 249.32-2.88 245.92-6.25 245.92-12.23 245.92-18.2 249.2-21.85 252.47-25.5 257.47-25.5 262.47-25.5 265.2-22.95 267.92-20.4 267.92-16.75L267.92-16.75Q267.92-8.65 258.62-8.65L258.62-8.65 255.17-8.65Q255.17-7.15 256-6.58 256.82-6 258.42-6L258.42-6Q261.92-6 265.07-7.6L265.07-7.6Q265.12-7.65 265.52-6.9L265.52-6.9Q266.72-4.75 266.72-3.28 266.72-1.8 265.77-1.35ZM259.52-15.8L259.52-15.8Q259.52-17.9 257.47-17.9L257.47-17.9Q256.52-17.9 255.85-17.32 255.17-16.75 255.17-15.65L255.17-15.65 255.17-14.1 257.87-14.1Q259.52-14.1 259.52-15.8ZM290.07-1.35L290.07-1.35Q286.92 0.5 281.97 0.5 277.02 0.5 273.62-2.88 270.22-6.25 270.22-12.23 270.22-18.2 273.49-21.85 276.77-25.5 281.77-25.5 286.77-25.5 289.49-22.95 292.22-20.4 292.22-16.75L292.22-16.75Q292.22-8.65 282.92-8.65L282.92-8.65 279.47-8.65Q279.47-7.15 280.29-6.58 281.12-6 282.72-6L282.72-6Q286.22-6 289.37-7.6L289.37-7.6Q289.42-7.65 289.82-6.9L289.82-6.9Q291.02-4.75 291.02-3.28 291.02-1.8 290.07-1.35ZM283.82-15.8L283.82-15.8Q283.82-17.9 281.77-17.9L281.77-17.9Q280.82-17.9 280.14-17.32 279.47-16.75 279.47-15.65L279.47-15.65 279.47-14.1 282.17-14.1Q283.82-14.1 283.82-15.8ZM308.12-25.2L308.12-34.7Q308.12-35.45 312.07-35.45L312.07-35.45Q313.42-35.45 315.19-35.27 316.97-35.1 316.97-34.8L316.97-34.8 316.97-8.45 318.72-8.45Q319.97-8.45 320.37-6.2L320.37-6.2Q320.47-5.55 320.47-4.42 320.47-3.3 319.77-1.7L319.77-1.7Q318.77 0.5 316.57 0.5L316.57 0.5Q314.92 0.5 313.64-0.15 312.37-0.8 311.92-1.5L311.92-1.5 311.47-2.15Q308.72 0.5 304.57 0.5 300.42 0.5 297.47-2.95 294.52-6.4 294.52-12.58 294.52-18.75 297.62-22.13 300.72-25.5 305.37-25.5L305.37-25.5Q306.72-25.5 308.12-25.2L308.12-25.2ZM306.47-17.5L306.47-17.5Q303.67-17.5 303.67-12.45L303.67-12.45Q303.67-9.9 304.47-8.78 305.27-7.65 306.24-7.65 307.22-7.65 308.12-8.5L308.12-8.5 308.12-17Q307.27-17.5 306.47-17.5ZM325.89-2.95Q322.76-6.4 322.76-12.5 322.76-18.6 325.89-22.05 329.01-25.5 334.31-25.5 339.61-25.5 342.71-22.05 345.81-18.6 345.81-12.5 345.81-6.4 342.71-2.95 339.61 0.5 334.31 0.5 329.01 0.5 325.89-2.95ZM334.34-17.15Q331.51-17.15 331.51-12.55 331.51-7.95 334.34-7.95 337.16-7.95 337.16-12.55 337.16-17.15 334.34-17.15ZM372.01-16.3L372.01-0.25Q372.01 0.1 367.74 0.1 363.46 0.1 363.46-0.35L363.46-0.35 363.46-14.9Q363.46-17.4 361.81-17.4L361.81-17.4Q360.96-17.4 359.56-16.3L359.56-16.3 359.56-0.3Q359.56 0.2 355.29 0.2 351.01 0.2 351.01-0.35L351.01-0.35 351.01-16.7 349.76-16.7Q348.11-16.7 348.11-20.15L348.11-20.15Q348.11-21.7 348.71-23.3L348.71-23.3Q349.51-25.5 351.31-25.5 353.11-25.5 354.79-24.55 356.46-23.6 356.81-22.75L356.81-22.75Q359.91-25.5 363.69-25.5 367.46-25.5 369.76-23.15L369.76-23.15Q372.46-25.5 376.26-25.5L376.26-25.5Q384.51-25.5 384.51-15.45L384.51-15.45 384.51-0.25Q384.51 0.1 380.24 0.1 375.96 0.1 375.96-0.35L375.96-0.35 375.96-14.9Q375.96-17.4 374.31-17.4L374.31-17.4Q373.41-17.4 372.01-16.3L372.01-16.3Z" opacity="1" transform="matrix(1,0,0,1,0,0)" fill="#35185a" class="wordmark-text-0" data-fill-palette-color="primary" id="text-0"></path></svg></g></svg></g><g transform="matrix(1,0,0,1,0,54.64898048266596)"><svg viewBox="0 0 395.52 45.88258541004946" height="45.88258541004946" width="395.52"><path d="M395.52 0l-7.647 22.941 7.647 22.942h-395.52l7.647-22.942-7.647-22.941z" data-fill-palette-color="tertiary" opacity="1" fill="#35185a"></path><g transform="matrix(1,0,0,1,84.61614013284832,8.763573813319447)"><svg width="226.28771973430335" viewBox="3.7 -35.1 283.67 35.550000000000004" height="28.355437783410565" data-palette-color="#ffffff"><path d="M27.6-32.05L27.55-15.75 27.5-12.15Q27.6-6.25 24.4-2.95 21.2 0.35 15.3 0.35L15.3 0.35Q9.65 0.35 6.63-2.8 3.6-5.95 3.7-11.7L3.7-11.7 3.75-16.05 3.7-32.05 7.65-32.05 7.5-12.2Q7.45-7.7 9.5-5.43 11.55-3.15 15.6-3.15L15.6-3.15Q19.65-3.15 21.75-5.3 23.85-7.45 23.8-11.7L23.8-11.7 23.6-32.05 27.6-32.05ZM39.5-35.1L39.2-10.05 39.45 0 35.5 0 35.8-9.75 35.55-34.75 39.5-35.1ZM53.1-22.9L44.1-12.4Q47.55-7.75 53.7-0.7L53.7-0.7 53.7-0.25Q52.75 0.05 51.62 0.23 50.5 0.4 50.15 0.45L50.15 0.45 49.65 0.25Q44-6.45 40.15-12.05L40.15-12.05 40.15-12.4 47.3-20.85 48.6-22.9 53.1-22.9ZM58.74-23.05L59.3-20.1 63.49-4.3 63.8-4.3 68.64-19.9 69.39-22.9 73.3-22.9 73.84-20.1 78.05-4.3 78.34-4.3 83.19-19.9 83.94-22.9 87.4-22.9 79.84 0 76.09 0 71.3-17.75 70.94-17.75 65.39 0 61.49 0 55.09-22.8 58.74-23.05ZM107.24-11.65L92.89-11.6 92.89-11.5Q92.89-7.3 94.79-5.05 96.69-2.8 100.19-2.8L100.19-2.8Q101.94-2.8 103.69-3.38 105.44-3.95 106.89-5L106.89-5 107.29-4.7 106.69-1.3Q103.19 0.4 99.69 0.4L99.69 0.4Q94.79 0.4 91.99-2.73 89.19-5.85 89.19-11.3L89.19-11.3Q89.19-16.8 91.99-20.05 94.79-23.3 99.54-23.3L99.54-23.3Q103.54-23.3 105.74-21.03 107.94-18.75 107.94-14.7L107.94-14.7Q107.94-13.35 107.74-12.15L107.74-12.15 107.24-11.65ZM99.54-20.5Q97.04-20.5 95.37-18.88 93.69-17.25 93.14-14.3L93.14-14.3 104.19-14.5 104.29-15.2Q104.29-17.75 103.07-19.13 101.84-20.5 99.54-20.5L99.54-20.5ZM118.34-35.1L118.04-10.05 118.29 0 114.34 0 114.64-9.75 114.39-34.75 118.34-35.1ZM126.54 0L126.74-9.7 126.59-22.65 130.44-23 130.34-10.05 130.44 0 126.54 0ZM128.59-33.15Q129.59-33.15 130.19-32.55 130.79-31.95 130.79-30.9L130.79-30.9Q130.79-29.8 130.16-29.15 129.54-28.5 128.44-28.5L128.44-28.5Q127.39-28.5 126.81-29.1 126.24-29.7 126.24-30.8L126.24-30.8Q126.24-31.85 126.86-32.5 127.49-33.15 128.59-33.15L128.59-33.15ZM161.03 0L161.28-15.55Q161.33-17.6 160.33-18.75 159.33-19.9 157.38-19.9L157.38-19.9Q154.23-19.9 150.58-16.35L150.58-16.35 150.58-10.05 150.78 0 146.83 0 147.08-9.7 146.88-22.65 150.63-23 150.63-19.65 150.93-19.65Q154.03-22.4 157.28-23.2L157.28-23.2Q161.03-23.2 163.01-21.45 164.98-19.7 164.93-16.45L164.93-16.45 164.83-9.95 165.03 0 161.03 0ZM180.18-23.3Q183.43-23.3 185.31-21.7 187.18-20.1 187.18-17.3L187.18-17.3Q187.18-16.45 186.88-11.15L186.88-11.15Q186.58-5.85 186.58-4.95L186.58-4.95Q186.58-3.85 186.93-3.43 187.28-3 188.13-3L188.13-3Q188.88-3 189.83-3.3L189.83-3.3 190.23-2.95 189.83-0.7Q188.38 0.15 186.98 0.3L186.98 0.3Q185.43 0.15 184.51-0.8 183.58-1.75 183.53-3.4L183.53-3.4 183.18-3.4Q180.48-0.65 177.83 0.35L177.83 0.35Q174.48 0.35 172.61-1.33 170.73-3 170.73-5.9L170.73-5.9Q170.73-8.1 171.91-9.4 173.08-10.7 175.38-11.25L175.38-11.25 183.48-13.15 183.53-16.4Q183.53-18.35 182.51-19.4 181.48-20.45 179.58-20.45L179.58-20.45Q177.88-20.45 176.18-19.65 174.48-18.85 172.53-17.15L172.53-17.15 172.13-17.35 171.63-20.2Q175.78-23.3 180.18-23.3L180.18-23.3ZM183.43-10.6L176.18-8.85Q175.18-8.55 174.73-8.03 174.28-7.5 174.28-6.45L174.28-6.45Q174.28-4.8 175.21-3.88 176.13-2.95 177.68-2.95L177.68-2.95Q180.43-2.95 183.28-6.5L183.28-6.5 183.43-10.6ZM229.48-32.05L229.28-10 229.38 0 225.43 0 225.63-9.65 225.58-14.45 216.68-14.5 208.53-14.45 208.48-10 208.63 0 204.68 0 204.83-9.65 204.68-32.05 208.68-32.05 208.53-17.85 217.03-17.8 225.58-17.85 225.43-32.05 229.48-32.05ZM244.72-23.3Q247.97-23.3 249.85-21.7 251.72-20.1 251.72-17.3L251.72-17.3Q251.72-16.45 251.42-11.15L251.42-11.15Q251.12-5.85 251.12-4.95L251.12-4.95Q251.12-3.85 251.47-3.43 251.82-3 252.67-3L252.67-3Q253.42-3 254.37-3.3L254.37-3.3 254.77-2.95 254.37-0.7Q252.92 0.15 251.52 0.3L251.52 0.3Q249.97 0.15 249.05-0.8 248.12-1.75 248.07-3.4L248.07-3.4 247.72-3.4Q245.02-0.65 242.37 0.35L242.37 0.35Q239.02 0.35 237.15-1.33 235.27-3 235.27-5.9L235.27-5.9Q235.27-8.1 236.45-9.4 237.62-10.7 239.92-11.25L239.92-11.25 248.02-13.15 248.07-16.4Q248.07-18.35 247.05-19.4 246.02-20.45 244.12-20.45L244.12-20.45Q242.42-20.45 240.72-19.65 239.02-18.85 237.07-17.15L237.07-17.15 236.67-17.35 236.17-20.2Q240.32-23.3 244.72-23.3L244.72-23.3ZM247.97-10.6L240.72-8.85Q239.72-8.55 239.27-8.03 238.82-7.5 238.82-6.45L238.82-6.45Q238.82-4.8 239.75-3.88 240.67-2.95 242.22-2.95L242.22-2.95Q244.97-2.95 247.82-6.5L247.82-6.5 247.97-10.6ZM264.47-35.1L264.17-10.05 264.42 0 260.47 0 260.77-9.75 260.52-34.75 264.47-35.1ZM278.07-22.9L269.07-12.4Q272.52-7.75 278.67-0.7L278.67-0.7 278.67-0.25Q277.72 0.05 276.6 0.23 275.47 0.4 275.12 0.45L275.12 0.45 274.62 0.25Q268.97-6.45 265.12-12.05L265.12-12.05 265.12-12.4 272.27-20.85 273.57-22.9 278.07-22.9ZM283.12 0L283.32-9.7 283.17-22.65 287.02-23 286.92-10.05 287.02 0 283.12 0ZM285.17-33.15Q286.17-33.15 286.77-32.55 287.37-31.95 287.37-30.9L287.37-30.9Q287.37-29.8 286.74-29.15 286.12-28.5 285.02-28.5L285.02-28.5Q283.97-28.5 283.39-29.1 282.82-29.7 282.82-30.8L282.82-30.8Q282.82-31.85 283.44-32.5 284.07-33.15 285.17-33.15L285.17-33.15Z" opacity="1" transform="matrix(1,0,0,1,0,0)" fill="#ffffff" class="slogan-text-1" data-fill-palette-color="quaternary" id="text-1"></path></svg></g></svg></g></svg></g></svg></g></svg></g><defs></defs></svg><rect width="395.52" height="100.53156589271542" fill="none" stroke="none" visibility="hidden"></rect></g></svg></g></svg>